HIERARCHY
ROOT hip
{
  OFFSET 0 0 0
  CHANNELS 6 Xposition Yposition Zposition Zrotation Yrotation Xrotation
  JOINT abdomen
  {
    OFFSET 0 20.6881 -0.73152
    CHANNELS 3 Zrotation Xrotation Yrotation
    JOINT chest
    {
      OFFSET 0 11.7043 -0.48768
      CHANNELS 3 Zrotation Xrotation Yrotation
      JOINT neck
      {
        OFFSET 0 22.1894 -2.19456
        CHANNELS 3 Zrotation Xrotation Yrotation
        JOINT head
        {
          OFFSET -0.24384 7.07133 1.2192
          CHANNELS 3 Zrotation Xrotation Yrotation
          JOINT leftEye
          {
            OFFSET 4.14528 8.04674 8.04672
            CHANNELS 3 Zrotation Xrotation Yrotation
            End Site
            {
              OFFSET 1 0 0
            }
          }
          JOINT rightEye
          {
            OFFSET -3.6576 8.04674 8.04672
            CHANNELS 3 Zrotation Xrotation Yrotation
            End Site
            {
              OFFSET 1 0 0
            }
          }
        }
      }
      JOINT rCollar
      {
        OFFSET -2.68224 19.2634 -4.8768
        CHANNELS 3 Zrotation Xrotation Yrotation
        JOINT rShldr
        {
          OFFSET -8.77824 -1.95073 1.46304
          CHANNELS 3 Zrotation Xrotation Yrotation
          JOINT rForeArm
          {
            OFFSET -28.1742 -1.7115 0.48768
            CHANNELS 3 Zrotation Xrotation Yrotation
            JOINT rHand
            {
              OFFSET -22.5879 0.773209 7.07136
              CHANNELS 3 Zrotation Xrotation Yrotation
              JOINT rThumb1
              {
                OFFSET -1.2192 -0.487915 3.41376
                CHANNELS 3 Zrotation Xrotation Yrotation
                JOINT rThumb2
                {
                  OFFSET -3.37035 -0.52449 3.41376
                  CHANNELS 3 Zrotation Xrotation Yrotation
                  End Site
                  {
                    OFFSET -1.78271 -1.18214 1.43049
                  }
                }
              }
              JOINT rIndex1
              {
                OFFSET -7.75947 0.938293 5.60832
                CHANNELS 3 Zrotation Xrotation Yrotation
                JOINT rIndex2
                {
                  OFFSET -2.54057 -0.884171 1.56538
                  CHANNELS 3 Zrotation Xrotation Yrotation
                  End Site
                  {
                    OFFSET -1.62519 -0.234802 1.16502
                  }
                }
              }
              JOINT rMid1
              {
                OFFSET -8.24714 1.18213 3.41376
                CHANNELS 3 Zrotation Xrotation Yrotation
                JOINT rMid2
                {
                  OFFSET -3.10165 -0.590103 1.0647
                  CHANNELS 3 Zrotation Xrotation Yrotation
                  End Site
                  {
                    OFFSET -2.48547 -0.328903 0.83742
                  }
                }
              }
              JOINT rRing1
              {
                OFFSET -8.82822 0.546677 1.51678
                CHANNELS 3 Zrotation Xrotation Yrotation
                JOINT rRing2
                {
                  OFFSET -2.60934 -0.819778 -0.0198488
                  CHANNELS 3 Zrotation Xrotation Yrotation
                  End Site
                  {
                    OFFSET -2.33842 -0.294052 0.168128
                  }
                }
              }
              JOINT rPinky1
              {
                OFFSET -8.27202 -0.0477905 -0.4584
                CHANNELS 3 Zrotation Xrotation Yrotation
                JOINT rPinky2
                {
                  OFFSET -1.82734 -0.647385 -0.700984
                  CHANNELS 3 Zrotation Xrotation Yrotation
                  End Site
                  {
                    OFFSET -1.69225 -0.51767 -0.607171
                  }
                }
              }
            }
          }
        }
      }
      JOINT lCollar
      {
        OFFSET 2.68224 19.2634 -4.8768
        CHANNELS 3 Zrotation Xrotation Yrotation
        JOINT lShldr
        {
          OFFSET 8.77824 -1.95073 1.46304
          CHANNELS 3 Zrotation Xrotation Yrotation
          JOINT lForeArm
          {
            OFFSET 28.1742 -1.7115 0.48768
            CHANNELS 3 Zrotation Xrotation Yrotation
            JOINT lHand
            {
              OFFSET 22.5879 0.773209 7.07136
              CHANNELS 3 Zrotation Xrotation Yrotation
              JOINT lThumb1
              {
                OFFSET 1.2192 -0.487915 3.41376
                CHANNELS 3 Zrotation Xrotation Yrotation
                JOINT lThumb2
                {
                  OFFSET 3.37035 -0.52449 3.41376
                  CHANNELS 3 Zrotation Xrotation Yrotation
                  End Site
                  {
                    OFFSET 1.78271 -1.18214 1.43049
                  }
                }
              }
              JOINT lIndex1
              {
                OFFSET 7.75947 0.938293 5.60832
                CHANNELS 3 Zrotation Xrotation Yrotation
                JOINT lIndex2
                {
                  OFFSET 2.54057 -0.884171 1.56538
                  CHANNELS 3 Zrotation Xrotation Yrotation
                  End Site
                  {
                    OFFSET 1.62519 -0.234802 1.16502
                  }
                }
              }
              JOINT lMid1
              {
                OFFSET 8.24714 1.18213 3.41376
                CHANNELS 3 Zrotation Xrotation Yrotation
                JOINT lMid2
                {
                  OFFSET 3.10165 -0.590103 1.0647
                  CHANNELS 3 Zrotation Xrotation Yrotation
                  End Site
                  {
                    OFFSET 2.48547 -0.328903 0.83742
                  }
                }
              }
              JOINT lRing1
              {
                OFFSET 8.82822 0.546677 1.51678
                CHANNELS 3 Zrotation Xrotation Yrotation
                JOINT lRing2
                {
                  OFFSET 2.60934 -0.819778 -0.0198488
                  CHANNELS 3 Zrotation Xrotation Yrotation
                  End Site
                  {
                    OFFSET 2.33842 -0.294052 0.168128
                  }
                }
              }
              JOINT lPinky1
              {
                OFFSET 8.27202 -0.0477905 -0.4584
                CHANNELS 3 Zrotation Xrotation Yrotation
                JOINT lPinky2
                {
                  OFFSET 1.82734 -0.647385 -0.700984
                  CHANNELS 3 Zrotation Xrotation Yrotation
                  End Site
                  {
                    OFFSET 1.69225 -0.51767 -0.607171
                  }
                }
              }
            }
          }
        }
      }
    }
  }
  JOINT rButtock
  {
    OFFSET -8.77824 4.35084 1.2192
    CHANNELS 3 Zrotation Xrotation Yrotation
    JOINT rThigh
    {
      OFFSET 0 -1.70687 -2.19456
      CHANNELS 3 Zrotation Xrotation Yrotation
      JOINT rShin
      {
        OFFSET 0 -36.8199 0.73152
        CHANNELS 3 Zrotation Xrotation Yrotation
        JOINT rFoot
        {
          OFFSET 0.73152 -45.1104 -5.12064
          CHANNELS 3 Zrotation Xrotation Yrotation
          End Site
          {
            OFFSET -1.1221 -3.69964 12.103
          }
        }
      }
    }
  }
  JOINT lButtock
  {
    OFFSET 8.77824 4.35084 1.2192
    CHANNELS 3 Zrotation Xrotation Yrotation
    JOINT lThigh
    {
      OFFSET 0 -1.70687 -2.19456
      CHANNELS 3 Zrotation Xrotation Yrotation
      JOINT lShin
      {
        OFFSET 0 -36.8199 0.73152
        CHANNELS 3 Zrotation Xrotation Yrotation
        JOINT lFoot
        {
          OFFSET -0.73152 -45.1104 -5.12064
          CHANNELS 3 Zrotation Xrotation Yrotation
          End Site
          {
            OFFSET 1.1221 -3.69964 12.103
          }
        }
      }
    }
  }
}
MOTION
Frames:	4
Frame Time:	0.00833333
0.0 0.0 0.0 0.0 0.0 0.0 0.0 0.0 0.0 0.0 0.0 0.0 0.0 0.0 0.0 0.0 0.0 0.0 0.0 0.0 0.0 0.0 0.0 0.0 0.0 0.0 0.0 0.0 0.0 0.0 0.0 0.0 0.0 0.0 0.0 0.0 0.0 0.0 0.0 0.0 0.0 0.0 0.0 0.0 0.0 0.0 0.0 0.0 0.0 0.0 0.0 0.0 0.0 0.0 0.0 0.0 0.0 0.0 0.0 0.0 0.0 0.0 0.0 0.0 0.0 0.0 0.0 0.0 0.0 0.0 0.0 0.0 0.0 0.0 0.0 0.0 0.0 0.0 0.0 0.0 0.0 0.0 0.0 0.0 0.0 0.0 0.0 0.0 0.0 0.0 0.0 0.0 0.0 0.0 0.0 0.0 0.0 0.0 0.0 0.0 0.0 0.0 0.0 0.0 0.0 0.0 0.0 0.0 0.0 0.0 0.0 0.0 0.0 0.0 0.0 0.0 0.0 0.0 0.0 0.0 0.0 0.0 0.0 0.0 0.0 0.0 0.0 0.0 0.0 0.0 0.0 0.0
-7.317 65.77340000000001 -160.65529999999998 2.847497 60.817717 4.795794 -3.378207 4.162206 0.104925 2.507122 -2.500002 -5.300901 -11.799619 16.829584 -79.579778 21.176835 12.019511 65.060362 -0.000429 0.0 -0.000687 -0.000429 0.0 -0.000687 -59.832437 -86.72149 -81.632615 -1.166075 3.584094 -0.508812 144.700549 -76.819254 98.156124 173.221745 -9.2943 144.633719 2.845336 -2.827217 -0.367771 -137.865481 -40.69816 120.440999 -140.870998 1.210936 116.291961 95.205841 -70.272007 43.90089 173.125848 -66.298024 137.616593 11.320986 -24.936861 -1.255108 -7.3e-05 0.063731 0.020772 9.351237 11.534856 1.487297 16.824966 58.945589 12.648208 1.043532 -1.271097 -0.9529 155.659715 -4.540376 -162.055048 140.548237 58.975361 -135.966471 -37.981515 -34.277818 -7.107086 151.173049 64.379931 -128.694564 -116.309137 -50.010398 -56.954891 116.458453 32.926579 -71.114095 35.098537 35.160182 -26.613156 -95.192836 -62.877089 -45.856099 -23.900116 -61.334499 -1.396713 171.21504 -28.27036 -144.11835 -0.005661 1.771368 -0.556584 -6.768303 29.70707 -4.67549 163.034303 73.433153 150.718333 148.892401 13.085461 142.594647 -0.000641 -0.000139 -0.000962 -7.890909 -16.365407 -180.0 4.593983 -27.38594 51.979155 24.209276 -5.72924 142.221237 -0.002084 -0.000138 -0.002084 4.427715 -10.058115 10.408552 -5.104392 29.013921 -113.880357 150.197881 -11.852839 -133.155854
-7.3177 65.82249999999999 -160.6573 3.102012 60.555505 5.050533 -5.862624 8.053824 36.237416 2.30653 -7.987486 -46.808315 2.277069 14.833952 43.894341 -12.16495 -15.460021 -76.77506 7.2e-05 -0.0 -0.001649 0.000365 0.0 7.7e-05 2.388292 -17.550787 -3.545512 -138.860133 -9.748374 -169.502967 179.943883 6.638243 -161.14236 -9.162361 27.032334 1.194999 -12.926517 12.051572 3.309755 50.417347 -59.201158 -6.785496 -43.64955 38.803645 34.059211 1.41439 8.048952 -0.871541 -171.05947 -38.900288 145.27104 -7.589 26.101013 6.407759 -71.928575 72.972795 89.7726 5.046909 28.726267 -0.572369 -74.133329 -51.746718 -72.617893 2.265967 -2.99463 -1.846459 -0.118091 -0.714045 0.157954 128.425363 -20.748258 179.136243 0.217687 -42.387819 53.151764 -157.260584 -38.121449 -138.060276 78.030667 38.688992 -42.41273 138.722088 -26.909718 -82.748937 33.796347 34.485851 -25.49468 -13.652946 -9.492519 2.635717 89.834542 60.701319 -81.262981 128.933308 51.953397 -118.316896 0.014638 -1.323093 0.416262 149.876052 38.863929 -164.838416 126.798435 -26.62088 124.514173 172.265504 73.087729 142.312773 -179.996369 75.750575 -0.002484 161.296009 46.547905 13.550886 -6.367721 43.023602 -177.807152 16.581895 25.802689 -160.339657 179.99091 75.748899 0.007479 -157.061246 60.187103 -0.0 18.819581 43.283818 106.388656 -22.81839 6.13654 -118.559758
-7.316599999999999 65.8804 -160.6463 3.209623 60.325793 5.12545 -3.375401 7.995626 -142.583776 -1.738508 6.844424 126.210731 -15.464541 28.58848 -75.013802 38.199015 8.706169 27.713313 -0.000116 -0.0 0.001392 -0.000116 -0.0 0.001392 -155.417507 -2.95153 161.718194 -36.495616 -6.610993 17.05551 6.225571 -10.432253 -61.602804 169.289025 -21.210867 143.113755 -178.926912 -16.453971 89.421494 -71.715125 5.869529 19.942337 11.980535 -21.347032 -5.062499 -21.155665 36.954857 17.000487 -36.034634 51.724069 29.830597 -55.948156 62.264784 49.356127 0.006064 0.918016 0.286759 -151.599796 -72.316273 -174.849296 -86.000464 -50.496145 -84.370763 -24.165925 -40.901426 -26.197524 -4.239029 -44.742758 8.648043 88.122003 -39.999949 128.857607 -109.700954 53.896145 99.96133 114.220253 77.592538 -96.863531 -0.569102 -0.560945 0.084253 30.232518 23.836114 -26.55098 138.763201 4.487314 -115.031566 23.754067 43.453069 -10.769641 160.572551 -6.359518 -143.198023 170.280178 -25.742337 -143.885893 0.014871 -1.322964 0.417098 -9.340389 12.723111 -1.663418 132.78186 -17.59607 130.285732 3.401466 -13.986559 7.013691 -0.003799 0.000463 -0.001899 -18.637779 -38.419431 -28.49084 -31.836195 46.115421 155.691283 -17.866911 36.6948 -84.117534 -179.997485 75.750243 -0.001721 -148.566371 54.720318 0.0 33.691777 51.001547 81.349579 -172.170686 -8.914977 96.465825
